HIERARCHY
ROOT Hips
{
  OFFSET -187.679 86.5976 -156.378
  CHANNELS 6 Xposition Yposition Zposition Zrotation Xrotation Yrotation
  JOINT LeftUpLeg
  {
    OFFSET 8.64259 1.95398 -2.38835
    CHANNELS 3 Zrotation Xrotation Yrotation
    JOINT LeftLeg
    {
      OFFSET 43.7702 0 0
      CHANNELS 3 Zrotation Xrotation Yrotation
      JOINT LeftFoot
      {
        OFFSET 40.6238 0 0
        CHANNELS 3 Zrotation Xrotation Yrotation
        JOINT LeftToeBase
        {
          OFFSET 12.7242 0 0
          CHANNELS 3 Zrotation Xrotation Yrotation
          End Site
          {
            OFFSET 0 0 0
          }
        }
      }
    }
  }
  JOINT RightUpLeg
  {
    OFFSET -8.2249 1.95398 -2.59336
    CHANNELS 3 Zrotation Xrotation Yrotation
    JOINT RightLeg
    {
      OFFSET 43.5653 0 0
      CHANNELS 3 Zrotation Xrotation Yrotation
      JOINT RightFoot
      {
        OFFSET 40.6238 0 0
        CHANNELS 3 Zrotation Xrotation Yrotation
        JOINT RightToeBase
        {
          OFFSET 12.7242 0 0
          CHANNELS 3 Zrotation Xrotation Yrotation
          End Site
          {
            OFFSET 0 0 0
          }
        }
      }
    }
  }
  JOINT Spine
  {
    OFFSET 0.165834 0.87714 6.61349
    CHANNELS 3 Zrotation Xrotation Yrotation
    JOINT Spine1
    {
      OFFSET 7.38963 1.71661e-005 0
      CHANNELS 3 Zrotation Xrotation Yrotation
      JOINT Spine2
      {
        OFFSET 11.9445 1.14441e-005 0
        CHANNELS 3 Zrotation Xrotation Yrotation
        JOINT Spine3
        {
          OFFSET 14.7254 4.19617e-005 0
          CHANNELS 3 Zrotation Xrotation Yrotation
          JOINT Spine4
          {
            OFFSET 10.9679 0 0
            CHANNELS 3 Zrotation Xrotation Yrotation
            JOINT RightShoulder
            {
              OFFSET 2.46616 -1.6653 3.69651
              CHANNELS 3 Zrotation Xrotation Yrotation
              JOINT RightArm
              {
                OFFSET 13.0012 0 0
                CHANNELS 3 Zrotation Xrotation Yrotation
                JOINT RightForeArm
                {
                  OFFSET 28.7848 1.52588e-005 0
                  CHANNELS 3 Zrotation Xrotation Yrotation
                  JOINT RightHand
                  {
                    OFFSET 26.5688 1.52588e-005 0
                    CHANNELS 3 Zrotation Xrotation Yrotation
                    End Site
                    {
                      OFFSET 0 0 0
                    }
                  }
                }
              }
            }
            JOINT LeftShoulder
            {
              OFFSET 2.38034 -1.29275 -3.7523
              CHANNELS 3 Zrotation Xrotation Yrotation
              JOINT LeftArm
              {
                OFFSET 16.3182 6.10352e-005 0
                CHANNELS 3 Zrotation Xrotation Yrotation
                JOINT LeftForeArm
                {
                  OFFSET 27.0901 0 0
                  CHANNELS 3 Zrotation Xrotation Yrotation
                  JOINT LeftHand
                  {
                    OFFSET 24.5451 1.52588e-005 0
                    CHANNELS 3 Zrotation Xrotation Yrotation
                    End Site
                    {
                      OFFSET 0 0 0
                    }
                  }
                }
              }
            }
            JOINT Neck
            {
              OFFSET 5.0226 -0.0266342 0
              CHANNELS 3 Zrotation Xrotation Yrotation
              JOINT Head
              {
                OFFSET 6.69363 2.86102e-005 0
                CHANNELS 3 Zrotation Xrotation Yrotation
                End Site
                {
                  OFFSET 0 0 0
                }
              }
            }
          }
        }
      }
    }
  }
}
MOTION
Frames:	18
Frame Time:	0.0416667
69.1473 86.9236 36.8943 93.1529 -35.1124 103.333 -168.15 43.0793 81.4605 -86.5042 23.9906 2.28958 75.0238 8.91063 5.55252 23.2466 2.84908 -13.6713 164.107 -6.29915 81.4627 -45.2399 5.33676 4.67563 75.5736 -5.94166 0.569168 50.0627 3.21759 -1.03262 2.80267 8.02341 -90.5162 10.8713 5.34188 -1.52785 -0.789798 5.26949 -1.76206 -23.4135 5.55336 0.153136 -3.40084 5.55338 0.153134 92.3154 -34.9097 -100.535 12.0673 -6.00544 -41.4452 -36.2249 23.9731 -118.146 -1.72034 -0.0847138 1.14125 -84.996 -40.3371 85.0399 -37.6512 12.1457 50.3836 21.6924 -23.0699 -113.675 -3.20937 -0.058449 -8.06006 28.622 1.2092 0.728694 0.109277 0.931026 2.3853 
74.1042 88.6734 41.2378 91.7854 -32.1926 103.089 -167.563 42.5422 81.2325 -76.482 23.0421 -0.483803 76.5845 9.56499 5.43518 19.517 2.08075 -14.0687 165.099 -13.2096 82.965 -37.0506 6.07569 5.73082 65.6269 -2.56892 0.330896 52.4387 3.41098 0.723804 3.02984 7.92536 -90.5186 11.0741 5.79056 -1.59053 -0.585171 5.71497 -1.84459 -23.2245 5.99997 0.22955 -3.21182 5.99995 0.22954 93.3794 -32.1719 -99.2554 15.896 -8.69018 -43.705 -34.9137 24.4431 -119.45 -2.32837 -0.155132 3.6659 -85.4239 -38.2592 83.9528 -40.4023 12.166 54.0912 20.904 -23.7744 -114.288 -2.51209 -0.0836043 -6.93737 32.3974 -0.860511 -0.0322375 -3.48722 -0.819276 3.1484 
79.6381 90.4094 45.6205 90.2081 -29.0936 102.701 -167.417 40.5993 81.19 -65.8082 21.9212 -3.30023 75.0014 8.43423 5.16302 20.7177 1.42767 -11.6102 167.487 -18.8048 85.325 -30.7647 6.58369 5.72039 57.9773 0.275826 0.814757 45.0618 1.87066 3.96043 3.03252 7.78936 -90.3964 11.3432 5.84971 -1.37519 -0.315563 5.78351 -1.63211 -22.9569 5.99161 0.452852 -2.94427 5.99161 0.452854 93.422 -31.973 -99.2251 15.8993 -14.8389 -44.9388 -40.7364 28.2417 -117.397 -0.763744 -0.0355355 2.52969 -85.3141 -35.2839 83.5818 -42.7032 11.3678 56.0882 19.3342 -23.7307 -115.909 -0.928076 -0.120825 -6.40292 35.6765 -2.67425 -2.28368 -6.32452 -1.62007 3.4938 
84.8473 91.4649 49.6652 87.3202 -26.4496 101.888 -168.125 39.9798 81.1959 -56.5843 21.0299 -5.14721 73.1194 7.25406 4.96872 18.4872 1.39284 -13.0365 170.533 -19.9445 88.6971 -30.2015 3.89695 4.46918 58.0253 0.54688 0.593495 26.6775 -1.37155 3.43639 2.93379 7.55452 -90.1938 11.8034 5.7436 -0.996502 0.144638 5.69417 -1.24913 -22.4921 5.77664 0.781674 -2.47943 5.77665 0.781676 93.2574 -32.5774 -99.3821 15.0227 -20.9542 -45.5901 -44.4995 30.3903 -114.894 -0.529493 -0.0207246 1.39764 -85.7817 -33.5726 82.389 -43.3631 10.6906 56.9249 17.6179 -23.2377 -117.977 1.61381 -0.173123 -6.67302 37.6584 -4.04859 -4.47776 -6.76751 -1.81986 2.68467 
89.7624 91.5878 53.1832 85.2137 -24.9036 101.926 -169.035 39.1483 81.9665 -49.615 21.5642 -5.90225 70.5189 5.74322 4.49986 15.7267 -0.167158 -11.156 172.097 -18.4025 90.9356 -35.2556 0.124469 3.05884 60.3897 -0.404656 0.199369 21.6264 -2.50462 3.88335 2.81788 7.40095 -90.1542 12.1074 5.52886 -0.916805 0.447758 5.48314 -1.15997 -22.1813 5.54798 0.792491 -2.1687 5.54798 0.792496 93.4813 -32.8265 -98.8843 11.9212 -28.9114 -47.3215 -48.3165 30.9048 -109.507 0.677109 0.0337822 0.420316 -87.2219 -34.9654 80.0872 -41.6639 7.71666 56.0805 17.699 -22.4709 -119.886 3.7427 -0.179775 -5.92913 38.3744 -4.20024 -5.04148 -5.58673 -1.62314 2.05455 
94.499 91.2718 56.4127 85.1555 -24.0691 103.056 -170.48 35.908 83.3812 -44.6509 22.0273 -4.98776 69.2461 5.04022 3.99736 14.7304 -0.55854 -10.8786 171.438 -16.2816 90.9312 -44.8259 -1.57339 2.55687 62.4997 -1.234 -0.724919 24.5781 -2.7476 6.37132 2.64814 7.39211 -90.2244 12.1249 5.1579 -1.01794 0.463603 5.10811 -1.24452 -22.1537 5.22472 0.583605 -2.14109 5.22474 0.583609 92.2452 -35.3478 -100.546 10.0413 -35.0372 -44.3854 -49.8739 29.5614 -104.561 0.651257 0.0355725 0.625049 -87.3401 -37.1744 80.3961 -40.8836 7.27561 52.6606 19.5219 -22.6955 -119.072 4.93591 -0.134622 -4.92573 39.0083 -3.70472 -5.85431 -5.65293 -0.745664 2.46884 
99.6601 91.0227 59.3898 86.536 -22.3428 104.821 -170.14 32.1432 84.1646 -48.7693 24.6104 -4.62837 72.5729 7.67116 6.62972 6.09134 1.40889 -19.2102 169.645 -14.0514 89.9576 -56.7686 3.58466 2.81885 64.4377 -1.98231 -1.33889 21.2 -3.03762 5.09461 2.33474 7.54525 -90.3794 11.8146 4.46484 -1.23076 0.1505 4.40634 -1.42641 -22.4463 4.62787 0.170857 -2.43367 4.62787 0.170859 90.7976 -37.9145 -102.441 12.0982 -38.4617 -37.2788 -50.0631 26.4118 -99.767 -0.554333 -0.0275905 1.98471 -87.6465 -39.1397 80.3116 -40.6264 6.70756 46.9249 22.3661 -22.6375 -116.57 4.95391 -0.134704 -4.92316 38.0204 -2.51118 -6.4827 -4.52584 0.647206 2.1593 
104.821 90.5771 62.2852 88.151 -20.5154 105.77 -169.796 26.6819 84.7513 -52.1313 24.626 -3.98 82.4936 12.0863 3.77456 -9.66123 -2.56958 -19.2527 167.969 -9.76276 89.2357 -70.8381 13.4896 2.25562 67.1325 -3.31061 -1.4763 18.809 -3.1177 4.01539 1.95109 7.72984 -90.4031 11.4378 3.69392 -1.17732 -0.228629 3.63852 -1.33894 -22.806 3.87673 -0.0110912 -2.79336 3.87674 -0.0110918 89.4386 -40.6253 -104.012 16.8115 -39.0555 -27.2164 -51.1364 23.3804 -96.2171 -2.29818 -0.106686 0.650232 -88.0906 -40.9057 79.9623 -38.5275 5.65781 40.2326 21.8484 -20.4467 -115.262 5.84824 -0.0508834 -3.71455 35.2437 -1.47786 -8.13423 -2.03765 2.23171 2.08656 
109.319 89.7138 64.9858 87.7511 -17.8614 104.271 -170.015 23.2458 83.3298 -55.6092 26.0555 -2.88781 86.6224 14.8037 4.21573 -7.64433 -6.55354 -12.7573 166.356 -1.55718 88.173 -85.1084 21.6773 0.645971 70.0969 -4.6719 -1.90152 17.2531 -2.67356 2.12147 1.42335 7.74905 -90.1828 11.3863 2.74704 -0.640592 -0.282015 2.71618 -0.760954 -22.8405 2.81245 0.215281 -2.82786 2.81249 0.215287 88.2767 -44.3159 -104.842 21.1584 -37.195 -15.9254 -52.371 20.8569 -93.6242 -1.77037 -0.079453 0.356891 -88.7728 -43.4003 79.4041 -34.8232 6.33816 31.95 19.8445 -18.6301 -115.09 5.05852 -0.0202333 -3.16343 33.0636 -0.796459 -9.80502 0.0701726 3.45274 1.8003 
113.694 88.5455 67.2086 87.4181 -15.7759 100.522 -170.356 19.3894 80.0758 -56.8512 24.1166 -2.92949 88.3369 15.7379 3.94609 -3.81205 -3.48323 -15.4494 167.052 8.08335 84.6806 -97.9591 22.5193 -2.44837 73.4675 -5.81046 -2.96127 16.7319 -3.32289 3.47443 0.970381 7.92027 -89.6708 11.0286 2.08438 0.454011 -0.640771 2.10232 0.361793 -23.186 1.85152 1.05963 -3.1733 1.85152 1.05963 86.6546 -47.7967 -106.366 24.7576 -29.8117 -4.20134 -56.4023 20.4297 -94.0984 -0.0744892 0.0171404 2.37137 -88.6786 -46.0289 80.1266 -26.6496 6.66783 18.3817 17.6752 -16.5478 -117.068 7.85106 0.0633431 -2.475 34.1246 -0.767734 -10.7862 0.493774 3.97487 0.75612 
117.991 87.4204 69.3731 85.6801 -10.6469 99.0308 -171.892 17.5394 79.1722 -59.4924 23.8272 -0.522069 90.4178 16.4949 2.81428 -0.961838 0.77858 -20.9744 167.889 18.7571 87.4956 -108.626 18.5033 -3.69387 76.0687 -6.81924 -3.32807 15.6393 -3.54698 3.48238 0.307964 7.98321 -89.4971 10.9026 0.845781 0.921263 -0.768309 0.885509 0.883142 -23.3019 0.529835 1.13285 -3.28928 0.529845 1.13285 86.4541 -48.8683 -106.352 27.8979 -19.9712 6.29605 -55.8768 20.0498 -96.8718 1.31783 0.117407 3.16718 -88.4094 -46.6807 80.6823 -19.6045 7.17617 1.83591 16.347 -15.8693 -118.594 5.57994 0.0879502 -1.75553 34.5495 -1.1525 -11.8741 2.39215 4.11021 0.190698 
122.355 86.4519 71.7115 85.1286 -6.00284 99.4789 -173.024 14.2482 80.9718 -61.9031 25.1166 1.94746 94.6233 17.9005 0.730701 -4.00248 1.38317 -22.9884 169.326 28.0754 90.0729 -115.959 16.023 -4.32736 78.1317 -7.34145 -3.42522 15.1317 -4.30302 5.01027 -0.152807 8.17125 -89.6172 10.5318 -0.128497 0.771508 -1.13934 -0.0944273 0.776408 -23.6731 -0.354403 0.697233 -3.66046 -0.354429 0.697216 89.1754 -46.5764 -102.755 31.4078 -11.7236 15.7865 -52.8629 19.64 -100.722 0.882226 0.07991 2.19691 -88.9948 -45.4695 79.5102 -14.9592 3.83747 -14.7825 15.1978 -14.1493 -119.271 4.0091 -0.0735347 -3.94628 34.8218 -1.29695 -12.6122 4.22912 4.37136 1.07765 
127.636 86.2446 73.7974 84.7165 -0.981688 100.181 -173.795 8.7156 83.8509 -60.6851 26.8302 4.50028 97.4973 18.4794 -1.31308 -6.68936 3.49404 -26.8723 168.499 35.6451 92.2807 -118.12 15.914 -4.39442 80.9908 -7.6136 -4.68215 14.6782 -4.15543 4.44027 -0.688517 8.31354 -89.8173 10.2498 -1.28827 0.473179 -1.42064 -1.26621 0.529417 -23.9609 -1.37092 0.0640491 -3.94822 -1.37091 0.0640639 92.2233 -44.0158 -98.4503 31.677 -5.56255 24.209 -50.2017 21.8502 -106.569 -9.41463 -0.765998 4.68573 -89.225 -42.8063 78.536 -14.0292 -0.991702 -29.2733 14.1215 -12.0551 -119.021 2.05151 -0.0786524 -3.97772 35.2906 -1.55648 -13.7217 3.68577 4.73246 2.1667 
133.766 86.4749 75.7664 84.4668 1.43251 101.656 -173.14 2.95943 88.3116 -57.8025 31.9157 6.91182 94.6075 18.6747 1.6113 -1.42289 4.7439 -27.6727 167.797 42.0786 95.676 -115.773 19.9584 -3.99529 84.5119 -8.08675 -4.28155 16.3958 -3.40345 3.49961 -1.13505 8.33792 -90.1003 10.1999 -2.30739 -0.0035275 -1.46895 -2.30529 0.0980843 -24.0195 -2.19961 -0.697167 -4.00685 -2.1996 -0.697167 93.3531 -42.3603 -96.9137 33.564 -7.06702 31.9571 -49.1904 22.7562 -106.677 -8.34877 -0.501389 1.84639 -89.0875 -40.6545 78.2418 -14.4675 -7.07626 -39.5536 12.8205 -9.88592 -120.693 3.01755 -0.131903 -5.06358 35.9963 -1.08902 -14.1794 1.70597 5.453 2.40623 
140.752 87.2554 77.3582 84.7689 2.68076 103.289 -172.161 -4.7945 90.4565 -52.1911 35.6511 9.52979 88.0034 16.957 5.63229 10.0179 6.79847 -29.0517 167.842 46.2725 99.1965 -109.956 22.9596 -3.18511 86.8493 -8.11933 -3.15836 18.2432 -3.00043 3.42694 -1.53903 8.35531 -90.4114 10.1575 -3.25411 -0.541565 -1.50943 -3.27478 -0.397681 -24.0716 -2.94078 -1.49529 -4.05893 -2.94078 -1.4953 93.6908 -41.5389 -96.5052 35.1374 -9.77702 38.371 -45.1977 22.2636 -105.993 -2.7132 -0.123421 0.679715 -87.8477 -36.7279 79.4034 -17.5699 -11.2456 -46.2989 13.391 -9.39013 -122.636 4.09179 -0.15522 -5.45852 35.741 0.430921 -14.5605 1.32163 7.02405 2.63267 
148.104 88.593 78.4757 84.8006 2.70831 104.591 -170.763 -11.4742 94.1391 -44.0282 39.3641 11.8767 76.939 11.1959 7.36511 19.7417 7.15301 -27.2606 168.826 49.0669 101.12 -100.993 22.2857 -2.07955 87.9896 -8.08864 -0.953531 19.1151 -2.95161 3.73738 -1.88087 8.29486 -90.6958 10.2689 -4.06531 -1.03275 -1.39597 -4.10681 -0.852567 -23.9693 -3.56683 -2.20807 -3.95665 -3.56682 -2.20808 92.7037 -40.1137 -98.5229 36.8477 -9.54331 43.7887 -46.1357 22.6114 -105.365 -4.03642 -0.201559 0.95186 -85.9445 -31.9853 81.7409 -21.5919 -12.5919 -50.3266 13.4774 -8.76791 -123.718 4.2757 -0.0450522 -3.46422 36.0423 2.00861 -15.2327 -0.136279 8.84203 3.33894 
155.675 89.8729 79.4746 84.556 2.00911 105.761 -168.798 -17.7124 97.3409 -33.2036 43.7109 12.0943 62.5226 3.04599 6.58655 37.7661 9.2461 -28.1281 169.881 51.0051 102.615 -90.5154 14.9866 -0.701061 85.8339 -7.81608 -1.33324 18.5646 -2.67804 2.75619 -2.12691 8.23044 -90.9902 10.3838 -4.6905 -1.55721 -1.27932 -4.75443 -1.34885 -23.8598 -4.00551 -2.89648 -3.84714 -4.00553 -2.89648 91.3857 -40.3859 -100.736 36.0966 -9.45172 47.2959 -45.7684 22.3981 -105.482 -5.64608 -0.265848 0.540447 -84.5643 -27.3058 83.3789 -24.8727 -13.158 -51.7221 11.5132 -7.19086 -125.243 3.97823 -0.0639894 -3.77712 37.7964 3.19873 -16.2373 -3.45915 10.5845 4.51887 
163.039 90.7084 80.4309 83.5804 0.360158 106.507 -168.424 -21.3518 98.7534 -26.7088 45.2972 11.5923 54.7803 -1.24503 3.39004 30.7988 3.79005 -11.0995 171.266 52.1199 103.599 -77.8375 6.8862 0.833245 82.3424 -7.10957 -1.08261 19.7972 -2.12197 1.89771 -2.17355 8.03226 -91.3467 10.762 -4.94905 -2.22055 -0.901074 -5.04199 -2.00018 -23.4758 -4.05305 -3.60641 -3.46315 -4.05307 -3.60642 90.2006 -38.9677 -103.19 36.4545 -8.14495 49.2208 -46.7009 22.3852 -105.293 -6.58047 -0.338667 1.08587 -84.148 -24.812 83.6841 -24.9953 -11.2425 -51.4678 11.4071 -8.20239 -127.46 4.23936 -0.125543 -4.87747 39.8692 4.73793 -15.2418 -7.54345 11.7208 4.1976 
